<svg width="275" height="170" viewBox="0 0 275 170" style="color: #172554;" xmlns="http://www.w3.org/2000/svg">
    <path
        d="M137.5 169.64C213.439 169.64 275 164.572 275 158.32C275 152.068 213.439 147 137.5 147C61.5608 147 0 152.068 0 158.32C0 164.572 61.5608 169.64 137.5 169.64Z"
        fill="currentColor" />
    <path d="M14.1186 51.3591L13.1212 51.4309L14.4496 69.8731L15.4471 69.8013L14.1186 51.3591Z" fill="currentColor" />
    <path d="M16.1247 79.3218L15.1273 79.3936L15.6274 86.3356L16.6248 86.2638L16.1247 79.3218Z" fill="currentColor" />
    <path
        d="M247.71 164.16H33.55C31.1661 164.117 28.8825 163.193 27.1394 161.566C25.3963 159.94 24.3172 157.725 24.11 155.35L13.59 9.22C13.4922 8.09302 13.6315 6.95804 13.9989 5.88816C14.3664 4.81829 14.9539 3.83725 15.7236 3.00824C16.4932 2.17922 17.428 1.52061 18.4677 1.07483C19.5074 0.629044 20.6289 0.405979 21.76 0.419994H235.92C238.302 0.462618 240.585 1.38509 242.328 3.00979C244.07 4.63449 245.151 6.84654 245.36 9.22L255.88 155.35C255.978 156.477 255.838 157.613 255.471 158.683C255.104 159.754 254.516 160.735 253.747 161.565C252.977 162.395 252.043 163.054 251.003 163.501C249.963 163.948 248.842 164.173 247.71 164.16Z"
        fill="currentColor" />
    <path
        d="M248.53 164.16H34.37C31.9861 164.117 29.7025 163.193 27.9594 161.566C26.2163 159.94 25.1372 157.725 24.93 155.35L14.41 9.22C14.3122 8.09302 14.4515 6.95804 14.8189 5.88816C15.1864 4.81829 15.7739 3.83725 16.5436 3.00824C17.3132 2.17922 18.248 1.52061 19.2877 1.07483C20.3274 0.629044 21.4489 0.405979 22.58 0.419994H236.74C239.122 0.462618 241.405 1.38509 243.148 3.00979C244.89 4.63449 245.971 6.84654 246.18 9.22L256.7 155.35C256.799 156.478 256.661 157.614 256.294 158.685C255.928 159.756 255.34 160.738 254.57 161.568C253.801 162.399 252.865 163.058 251.825 163.504C250.785 163.951 249.662 164.174 248.53 164.16Z"
        fill="currentColor" />
    <path opacity="0.5"
        d="M248.53 164.16H34.37C31.9861 164.117 29.7025 163.193 27.9594 161.566C26.2163 159.94 25.1372 157.725 24.93 155.35L14.41 9.22C14.3122 8.09302 14.4515 6.95804 14.8189 5.88816C15.1864 4.81829 15.7739 3.83725 16.5436 3.00824C17.3132 2.17922 18.248 1.52061 19.2877 1.07483C20.3274 0.629044 21.4489 0.405979 22.58 0.419994H236.74C239.122 0.462618 241.405 1.38509 243.148 3.00979C244.89 4.63449 245.971 6.84654 246.18 9.22L256.7 155.35C256.799 156.478 256.661 157.614 256.294 158.685C255.928 159.756 255.34 160.738 254.57 161.568C253.801 162.399 252.865 163.058 251.825 163.504C250.785 163.951 249.662 164.174 248.53 164.16Z"
        fill="white" />
    <path
        d="M237.06 4.82001H22.9H22.18C16.71 5.27001 17.83 13.6 23.35 13.6H237.87C243.4 13.6 243.32 5.27001 237.78 4.82001H237.06Z"
        fill="currentColor" />
    <path
        d="M28.48 9.22003C28.501 9.47784 28.4678 9.73718 28.3823 9.98132C28.2969 10.2255 28.1612 10.449 27.9841 10.6375C27.8069 10.8259 27.5922 10.9752 27.3538 11.0755C27.1154 11.1758 26.8586 11.2251 26.6 11.22C26.0565 11.2124 25.5351 11.0038 25.1362 10.6345C24.7374 10.2652 24.4894 9.76135 24.44 9.22003C24.4191 8.96308 24.4521 8.7046 24.5369 8.46115C24.6217 8.2177 24.7565 7.99466 24.9326 7.80635C25.1086 7.61804 25.3221 7.46862 25.5593 7.36765C25.7965 7.26668 26.0522 7.21639 26.31 7.22003C26.8552 7.22521 27.3791 7.43268 27.7801 7.80222C28.181 8.17175 28.4305 8.67702 28.48 9.22003Z"
        fill="#FAFAFA" />
    <path
        d="M35.35 9.22003C35.371 9.47784 35.3377 9.73718 35.2523 9.98132C35.1669 10.2255 35.0312 10.449 34.8541 10.6375C34.6769 10.8259 34.4622 10.9752 34.2238 11.0755C33.9854 11.1758 33.7286 11.2251 33.47 11.22C32.9265 11.2124 32.4051 11.0038 32.0062 10.6345C31.6074 10.2652 31.3594 9.76135 31.31 9.22003C31.2891 8.96308 31.3221 8.7046 31.4069 8.46115C31.4917 8.2177 31.6265 7.99466 31.8026 7.80635C31.9786 7.61804 32.1921 7.46862 32.4293 7.36765C32.6665 7.26668 32.9222 7.21639 33.18 7.22003C33.7252 7.22521 34.2491 7.43268 34.6501 7.80222C35.051 8.17175 35.3005 8.67702 35.35 9.22003Z"
        fill="#FAFAFA" />
    <path
        d="M42.21 9.21998C42.2309 9.47693 42.1979 9.73541 42.1131 9.97886C42.0283 10.2223 41.8935 10.4453 41.7175 10.6337C41.5414 10.822 41.3279 10.9714 41.0907 11.0724C40.8535 11.1733 40.5978 11.2236 40.34 11.22C39.7958 11.2146 39.2732 11.0067 38.8739 10.637C38.4746 10.2673 38.2272 9.76213 38.18 9.21998C38.1575 8.96269 38.1894 8.70354 38.2736 8.4594C38.3579 8.21526 38.4926 7.99159 38.669 7.80294C38.8454 7.61429 39.0595 7.46489 39.2974 7.36445C39.5354 7.26401 39.7918 7.21478 40.05 7.21998C40.5935 7.22761 41.115 7.43619 41.5138 7.80549C41.9127 8.17479 42.1607 8.67866 42.21 9.21998Z"
        fill="#FAFAFA" />
    <path
        d="M242.85 149.58H38C37.1346 149.566 36.3055 149.23 35.6735 148.639C35.0415 148.048 34.6518 147.243 34.58 146.38L25.93 26.21C25.8915 25.7977 25.9412 25.3818 26.0757 24.9901C26.2102 24.5984 26.4265 24.2398 26.7102 23.9381C26.994 23.6364 27.3386 23.3985 27.7213 23.2402C28.104 23.0819 28.5161 23.0069 28.93 23.02H233.83C234.694 23.0319 235.524 23.3652 236.156 23.9549C236.788 24.5446 237.178 25.3485 237.25 26.21L245.91 146.38C245.948 146.798 245.895 147.219 245.757 147.614C245.618 148.01 245.396 148.372 245.107 148.675C244.817 148.978 244.465 149.216 244.076 149.372C243.687 149.528 243.269 149.599 242.85 149.58Z"
        fill="white" />
    <path d="M156.53 103.8L153.19 57.48L143.09 51.4H115.28L119.06 103.8H156.53Z" fill="white" />
    <path
        d="M156.53 104.28H119.06C118.936 104.283 118.816 104.238 118.724 104.154C118.633 104.07 118.578 103.954 118.57 103.83L114.8 51.43C114.795 51.3643 114.804 51.2982 114.827 51.2362C114.849 51.1742 114.884 51.1176 114.93 51.07C114.974 51.0207 115.028 50.981 115.088 50.9534C115.149 50.9259 115.214 50.9111 115.28 50.91H143.09C143.178 50.9131 143.263 50.9371 143.34 50.98L153.44 57.06C153.508 57.099 153.565 57.154 153.607 57.2202C153.649 57.2864 153.674 57.3619 153.68 57.44L157 103.76C157.007 103.827 156.999 103.896 156.976 103.96C156.954 104.024 156.918 104.082 156.87 104.13C156.827 104.177 156.774 104.214 156.715 104.24C156.657 104.266 156.594 104.279 156.53 104.28ZM119.53 103.28H156L152.72 57.73L143 51.88H115.8L119.53 103.28Z"
        fill="currentColor" />
    <path d="M153.19 57.48L143.09 51.4L146.8 59.46L153.19 57.48Z" fill="#EBEBEB" />
    <path
        d="M146.8 59.94C146.708 59.9395 146.617 59.9129 146.54 59.8634C146.462 59.8139 146.4 59.7434 146.36 59.66L142.65 51.6C142.607 51.5054 142.594 51.3996 142.614 51.2974C142.634 51.1952 142.685 51.1017 142.76 51.03C142.839 50.9622 142.938 50.9208 143.042 50.9119C143.146 50.9029 143.25 50.9267 143.34 50.98L153.44 57.06C153.521 57.1089 153.587 57.1801 153.63 57.2651C153.672 57.3501 153.69 57.4454 153.68 57.54C153.667 57.6321 153.628 57.7185 153.568 57.7894C153.508 57.8602 153.429 57.9124 153.34 57.94L146.94 59.94H146.8ZM144.19 52.62L147.06 58.87L152.06 57.34L144.19 52.62Z"
        fill="currentColor" />
    <path
        d="M131 75C131.015 75.2717 130.974 75.5437 130.881 75.7992C130.787 76.0547 130.642 76.2883 130.455 76.4859C130.267 76.6834 130.042 76.8406 129.792 76.9479C129.542 77.0553 129.272 77.1104 129 77.11C128.429 77.0998 127.882 76.8785 127.465 76.4888C127.048 76.0992 126.789 75.5688 126.74 75C126.714 74.7254 126.747 74.4484 126.837 74.1876C126.927 73.9268 127.071 73.6881 127.26 73.4875C127.45 73.2869 127.68 73.1289 127.935 73.0242C128.19 72.9194 128.464 72.8703 128.74 72.88C129.312 72.8927 129.859 73.1161 130.276 73.5074C130.693 73.8986 130.951 74.4302 131 75Z"
        fill="currentColor" />
    <path
        d="M144.7 75C144.724 75.2738 144.69 75.5497 144.6 75.8093C144.509 76.0688 144.365 76.3063 144.176 76.5058C143.986 76.7053 143.757 76.8623 143.503 76.9665C143.248 77.0707 142.975 77.1196 142.7 77.11C142.128 77.1 141.58 76.8791 141.161 76.4896C140.742 76.1002 140.482 75.5697 140.43 75C140.414 74.7274 140.453 74.4544 140.546 74.1977C140.64 73.9411 140.784 73.7062 140.972 73.5076C141.159 73.3089 141.385 73.1508 141.636 73.0429C141.887 72.9349 142.157 72.8795 142.43 72.88C143.004 72.888 143.555 73.1096 143.974 73.5015C144.394 73.8935 144.653 74.4277 144.7 75Z"
        fill="currentColor" />
    <path
        d="M148.58 88.74C148.458 88.7379 148.342 88.6907 148.253 88.6076C148.165 88.5244 148.11 88.4112 148.1 88.29C147.85 84.88 142.51 82.11 136.2 82.11C132.01 82.11 128.25 83.36 126.39 85.36C126.008 85.7285 125.709 86.1741 125.512 86.6673C125.316 87.1604 125.226 87.6897 125.25 88.22C125.255 88.2857 125.246 88.3516 125.225 88.414C125.204 88.4764 125.172 88.5341 125.128 88.5838C125.041 88.6841 124.918 88.7457 124.785 88.755C124.652 88.7643 124.522 88.7205 124.421 88.6333C124.321 88.5461 124.259 88.4226 124.25 88.29C124.22 87.6271 124.329 86.9653 124.571 86.347C124.812 85.7288 125.179 85.1678 125.65 84.7C127.65 82.51 131.72 81.14 136.17 81.14C143.1 81.14 148.75 84.25 149.03 88.22C149.034 88.2831 149.026 88.3463 149.005 88.4061C148.985 88.4659 148.953 88.5211 148.911 88.5685C148.869 88.6159 148.818 88.6545 148.762 88.6822C148.705 88.71 148.643 88.7262 148.58 88.73V88.74Z"
        fill="currentColor" />
    <path
        d="M123.17 70.72C123.048 70.7175 122.931 70.6714 122.84 70.59C122.749 70.4982 122.698 70.3742 122.698 70.245C122.698 70.1158 122.749 69.9918 122.84 69.9L124.97 67.61C125.061 67.522 125.183 67.4728 125.31 67.4728C125.437 67.4728 125.559 67.522 125.65 67.61C125.695 67.6546 125.73 67.7076 125.755 67.7659C125.779 67.8243 125.791 67.8868 125.791 67.95C125.791 68.0132 125.779 68.0757 125.755 68.1341C125.73 68.1924 125.695 68.2454 125.65 68.29L123.52 70.58C123.474 70.6257 123.419 70.6617 123.359 70.6858C123.299 70.7099 123.235 70.7215 123.17 70.72Z"
        fill="currentColor" />
    <path
        d="M147.58 70.72C147.459 70.7143 147.343 70.6686 147.25 70.59L144.8 68.3C144.754 68.2552 144.717 68.2016 144.692 68.1424C144.667 68.0831 144.654 68.0194 144.654 67.955C144.654 67.8906 144.667 67.8269 144.692 67.7676C144.717 67.7084 144.754 67.6548 144.8 67.61C144.891 67.522 145.013 67.4728 145.14 67.4728C145.267 67.4728 145.389 67.522 145.48 67.61L147.93 69.9C147.975 69.9446 148.01 69.9976 148.035 70.0559C148.059 70.1143 148.071 70.1768 148.071 70.24C148.071 70.3032 148.059 70.3657 148.035 70.4241C148.01 70.4824 147.975 70.5354 147.93 70.58C147.835 70.6688 147.71 70.7188 147.58 70.72Z"
        fill="currentColor" />
    <path
        d="M112.26 114.15H114.52L117.78 118.49L117.47 114.15H119.75L120.31 121.99H118L114.76 117.68L115.07 121.99H112.79L112.26 114.15Z"
        fill="currentColor" />
    <path
        d="M121.33 118.07C121.253 117.538 121.29 116.995 121.438 116.478C121.586 115.96 121.842 115.481 122.19 115.07C122.57 114.696 123.025 114.408 123.525 114.223C124.025 114.039 124.558 113.963 125.09 114C126.217 113.939 127.324 114.315 128.18 115.05C128.964 115.831 129.419 116.883 129.45 117.99C129.533 118.753 129.43 119.525 129.15 120.24C128.891 120.816 128.457 121.295 127.91 121.61C127.253 121.962 126.514 122.131 125.77 122.1C125.005 122.124 124.244 121.981 123.54 121.68C122.923 121.384 122.403 120.919 122.04 120.34C121.611 119.657 121.366 118.875 121.33 118.07ZM123.76 118.07C123.75 118.683 123.948 119.282 124.32 119.77C124.476 119.942 124.668 120.078 124.882 120.168C125.097 120.257 125.328 120.299 125.56 120.29C125.782 120.305 126.004 120.267 126.208 120.178C126.411 120.09 126.59 119.953 126.73 119.78C127.017 119.234 127.112 118.607 127 118C127.004 117.412 126.807 116.84 126.44 116.38C126.28 116.211 126.085 116.078 125.87 115.99C125.654 115.902 125.423 115.861 125.19 115.87C124.972 115.861 124.756 115.903 124.558 115.993C124.359 116.084 124.186 116.22 124.05 116.39C123.757 116.905 123.655 117.507 123.76 118.09V118.07Z"
        fill="currentColor" />
    <path
        d="M134.15 114.15H137.75C138.343 114.131 138.935 114.23 139.49 114.44C139.929 114.624 140.32 114.908 140.63 115.27C140.945 115.637 141.186 116.062 141.34 116.52C141.502 117.012 141.603 117.523 141.64 118.04C141.717 118.694 141.666 119.356 141.49 119.99C141.352 120.429 141.108 120.828 140.78 121.15C140.506 121.44 140.161 121.653 139.78 121.77C139.315 121.905 138.834 121.979 138.35 121.99H134.76L134.15 114.15ZM136.7 115.93L137.01 120.21H137.6C137.965 120.234 138.331 120.176 138.67 120.04C138.894 119.91 139.059 119.699 139.13 119.45C139.245 119.006 139.272 118.544 139.21 118.09C139.229 117.48 139.042 116.881 138.68 116.39C138.494 116.222 138.276 116.094 138.038 116.015C137.801 115.936 137.549 115.907 137.3 115.93H136.7Z"
        fill="currentColor" />
    <path
        d="M147.45 120.69H144.7L144.41 121.99H141.94L144.32 114.15H147L150.51 121.99H147.97L147.45 120.69ZM146.82 119L145.76 116.18L145.1 119H146.82Z"
        fill="currentColor" />
    <path d="M149.37 114.15H156.73L156.87 116.09H154.4L154.82 121.99H152.4L151.98 116.09H149.51L149.37 114.15Z"
        fill="currentColor" />
    <path
        d="M162.37 120.69H159.62L159.33 121.99H156.86L159.24 114.15H161.88L165.38 121.99H162.85L162.37 120.69ZM161.74 119L160.67 116.18L160 119H161.74Z"
        fill="currentColor" />
</svg>
